<svg width="99" height="48" viewBox="0 0 99 48" fill="none" xmlns="http://www.w3.org/2000/svg">
<path d="M53.203 0H43.0375L26.7238 28.4936L10.0258 0H0V47.1294H11.2834V26.1946L23.8243 47.1294H29.239L53.203 6.13066V0Z" fill="white"/>
<path d="M84.3987 17.974H68.0151C66.1287 17.974 64.5917 16.4413 64.5917 14.5603C64.5917 12.6793 66.1287 11.1466 68.0151 11.1466H93.7608L98.4069 0H68.0151C59.9456 0 53.4131 6.51382 53.4131 14.5603C53.4131 22.6068 59.9456 29.1206 68.0151 29.1206H84.3987C86.2851 29.1206 87.8222 30.6533 87.8222 32.5343C87.8222 34.4153 86.2851 35.9479 84.3987 35.9479H48.4876L41.9551 47.1294H84.3987C92.4683 47.1294 99.0007 40.6156 99.0007 32.5691C99.0007 24.5226 92.4683 17.974 84.3987 17.974Z" fill="white"/>
</svg>
